<svg xmlns="http://www.w3.org/2000/svg" width="76" height="81" viewBox="0 0 76 81" fill="none"><path d="M20.3923 0.000262126L0 20.3926L20.3923 40.7849L40.7846 20.3926L20.3923 0.000262126Z" fill="#3A405A"></path><path d="M61.0859 40.787L40.6943 20.3955L50.8875 10.2023C56.5192 4.57059 65.6473 4.57059 71.279 10.2023C76.9107 15.834 76.9107 24.9621 71.279 30.5938L61.0859 40.787Z" fill="#3A405A"></path><path d="M40.4551 61.0849L60.8466 40.6934L71.0398 50.8865C76.6715 56.5182 76.6715 65.6464 71.0398 71.2781C65.4081 76.9098 56.28 76.9098 50.6483 71.2781L40.4551 61.0849Z" fill="#3A405A"></path><path d="M20.3962 40.2151L0.00390625 60.6074L20.3962 80.9997L40.7885 60.6074L20.3962 40.2151Z" fill="#3A405A"></path></svg>