<?xml version="1.0" encoding="UTF-8"?>
<svg id="Layer_2" data-name="Layer 2" xmlns="http://www.w3.org/2000/svg" viewBox="0 0 1502.97 1062.71">
  <defs>
    <style>
      .cls-1 { fill: #218380; }
      .cls-2 { fill: #f2d0a4; }
    </style>
  </defs>
  <g id="Layer_1-2" data-name="Layer 1">
    <g>
      <rect class="cls-1" width="1502.97" height="1062.71"/>
      <g>
        <g>
          <rect class="cls-2" x="312.51" y="294.07" width="198.19" height="198.19" transform="translate(-157.45 406.2) rotate(-45)"/>
          <path class="cls-2" d="M691.27,533.31l-140.14-140.14,70.07-70.07c38.7-38.7,101.44-38.7,140.14,0h0c38.7,38.7,38.7,101.44,0,140.14l-70.07,70.07Z"/>
          <path class="cls-2" d="M549.71,671.06l140.14-140.14,70.07,70.07c38.7,38.7,38.7,101.44,0,140.14h0c-38.7,38.7-101.44,38.7-140.14,0l-70.07-70.07Z"/>
          <rect class="cls-2" x="312.51" y="570.45" width="198.19" height="198.19" transform="translate(-352.88 487.15) rotate(-45)"/>
        </g>
        <g>
          <path class="cls-2" d="M918.91,392.76v11.69h-19.25v60.56h-14.49v-60.56h-19.25v-11.69h53Z"/>
          <path class="cls-2" d="M970.96,409.68c3.38,1.9,6.02,4.69,7.92,8.38,1.9,3.69,2.85,8.12,2.85,13.3v33.64h-14.49v-31.67c0-4.55-1.14-8.06-3.42-10.51-2.28-2.45-5.38-3.68-9.32-3.68s-7.16,1.23-9.47,3.68c-2.31,2.45-3.47,5.95-3.47,10.51v31.67h-14.49v-76.6h14.49v26.4c1.86-2.48,4.35-4.43,7.45-5.85,3.11-1.41,6.56-2.12,10.35-2.12,4.35,0,8.21.95,11.6,2.85Z"/>
          <path class="cls-2" d="M1047.81,440.68h-41.92c.35,4.14,1.8,7.39,4.35,9.73,2.55,2.35,5.69,3.52,9.42,3.52,5.38,0,9.21-2.31,11.49-6.94h15.63c-1.66,5.52-4.83,10.06-9.52,13.61-4.7,3.55-10.46,5.33-17.29,5.33-5.52,0-10.47-1.22-14.85-3.67-4.39-2.45-7.8-5.92-10.25-10.4-2.45-4.48-3.68-9.66-3.68-15.53s1.2-11.14,3.62-15.63c2.42-4.48,5.8-7.94,10.14-10.35,4.35-2.41,9.35-3.62,15.01-3.62s10.33,1.17,14.65,3.52c4.31,2.35,7.66,5.68,10.04,9.99,2.38,4.31,3.57,9.27,3.57,14.85,0,2.07-.14,3.93-.41,5.59ZM1033.21,430.95c-.07-3.73-1.41-6.71-4.03-8.95-2.63-2.24-5.83-3.37-9.63-3.37-3.59,0-6.61,1.09-9.06,3.26-2.45,2.17-3.95,5.19-4.5,9.06h27.22Z"/>
          <path class="cls-2" d="M871.04,512.42c3.21-5.63,7.59-10.01,13.15-13.15,5.55-3.14,11.78-4.71,18.68-4.71,8.07,0,15.15,2.07,21.22,6.21,6.07,4.14,10.31,9.87,12.73,17.18h-16.67c-1.66-3.45-3.99-6.04-6.99-7.76-3-1.72-6.47-2.59-10.4-2.59-4.21,0-7.96.98-11.23,2.95-3.28,1.97-5.83,4.74-7.66,8.33-1.83,3.59-2.75,7.8-2.75,12.63s.91,8.95,2.75,12.58c1.83,3.62,4.38,6.42,7.66,8.38,3.28,1.97,7.02,2.95,11.23,2.95,3.93,0,7.4-.88,10.4-2.64,3-1.76,5.33-4.36,6.99-7.81h16.67c-2.42,7.39-6.64,13.13-12.68,17.23-6.04,4.11-13.13,6.16-21.27,6.16-6.9,0-13.13-1.57-18.68-4.71-5.56-3.14-9.94-7.5-13.15-13.09-3.21-5.59-4.81-11.94-4.81-19.05s1.6-13.47,4.81-19.1Z"/>
          <path class="cls-2" d="M958.26,565c-4.42-2.45-7.89-5.92-10.4-10.4-2.52-4.48-3.78-9.66-3.78-15.53s1.29-11.04,3.88-15.53c2.59-4.48,6.12-7.95,10.61-10.4,4.48-2.45,9.49-3.67,15.01-3.67s10.52,1.22,15.01,3.67c4.48,2.45,8.02,5.92,10.61,10.4,2.59,4.49,3.88,9.66,3.88,15.53s-1.33,11.04-3.99,15.53c-2.66,4.49-6.25,7.96-10.76,10.4-4.52,2.45-9.58,3.67-15.17,3.67s-10.49-1.22-14.9-3.67ZM980.56,554.13c2.31-1.28,4.16-3.19,5.54-5.74,1.38-2.55,2.07-5.66,2.07-9.32,0-5.45-1.43-9.64-4.3-12.58-2.86-2.93-6.36-4.4-10.51-4.4s-7.61,1.47-10.4,4.4c-2.79,2.93-4.19,7.13-4.19,12.58s1.36,9.65,4.09,12.58c2.73,2.93,6.16,4.4,10.3,4.4,2.62,0,5.09-.64,7.4-1.91Z"/>
          <path class="cls-2" d="M1013.21,523.44c2.31-4.48,5.47-7.94,9.47-10.35,4-2.41,8.45-3.62,13.35-3.62,3.73,0,7.28.81,10.66,2.43,3.38,1.62,6.07,3.78,8.07,6.47v-27.23h14.7v76.6h-14.7v-8.49c-1.8,2.83-4.31,5.11-7.56,6.83-3.25,1.72-7.01,2.59-11.28,2.59-4.83,0-9.25-1.24-13.25-3.72-4-2.49-7.16-5.99-9.47-10.51-2.31-4.52-3.47-9.71-3.47-15.58s1.15-10.93,3.47-15.42ZM1052.8,530.01c-1.38-2.52-3.24-4.45-5.59-5.79-2.35-1.35-4.86-2.02-7.56-2.02s-5.18.66-7.45,1.97c-2.28,1.31-4.13,3.22-5.54,5.74-1.42,2.52-2.12,5.5-2.12,8.95s.71,6.47,2.12,9.06c1.41,2.59,3.28,4.57,5.59,5.95,2.31,1.38,4.78,2.07,7.4,2.07s5.21-.67,7.56-2.02c2.35-1.35,4.21-3.28,5.59-5.79,1.38-2.52,2.07-5.54,2.07-9.06s-.69-6.54-2.07-9.06Z"/>
          <path class="cls-2" d="M1135.93,543.42h-41.92c.35,4.14,1.79,7.39,4.35,9.73,2.55,2.35,5.69,3.52,9.42,3.52,5.39,0,9.21-2.31,11.49-6.94h15.63c-1.66,5.52-4.83,10.06-9.52,13.61-4.69,3.55-10.45,5.33-17.29,5.33-5.52,0-10.47-1.22-14.86-3.67-4.38-2.45-7.8-5.92-10.25-10.4-2.45-4.48-3.68-9.66-3.68-15.53s1.21-11.14,3.62-15.63c2.42-4.48,5.8-7.94,10.14-10.35,4.35-2.41,9.35-3.62,15.01-3.62s10.33,1.17,14.65,3.52c4.31,2.35,7.66,5.68,10.04,9.99,2.38,4.31,3.57,9.27,3.57,14.85,0,2.07-.14,3.93-.41,5.59ZM1121.34,533.69c-.07-3.73-1.42-6.71-4.04-8.95-2.62-2.24-5.83-3.37-9.63-3.37-3.59,0-6.61,1.09-9.06,3.26-2.45,2.17-3.95,5.19-4.5,9.06h27.22Z"/>
          <path class="cls-2" d="M1168.08,512.16c3-1.73,6.43-2.59,10.3-2.59v15.22h-3.83c-4.55,0-7.99,1.07-10.3,3.21-2.31,2.14-3.47,5.87-3.47,11.18v28.57h-14.49v-57.35h14.49v8.9c1.86-3.03,4.3-5.41,7.3-7.14Z"/>
          <path class="cls-2" d="M1196.31,566.14c-3.73-1.69-6.68-3.99-8.85-6.88-2.17-2.9-3.36-6.1-3.57-9.63h14.6c.27,2.21,1.36,4.04,3.26,5.49,1.9,1.45,4.26,2.17,7.09,2.17s4.92-.55,6.47-1.66c1.55-1.1,2.33-2.52,2.33-4.24,0-1.86-.95-3.26-2.85-4.19-1.9-.93-4.92-1.95-9.05-3.05-4.28-1.04-7.78-2.1-10.51-3.21-2.73-1.1-5.07-2.79-7.04-5.07-1.97-2.28-2.95-5.35-2.95-9.21,0-3.17.91-6.07,2.74-8.7,1.83-2.62,4.45-4.69,7.87-6.21,3.41-1.52,7.43-2.28,12.06-2.28,6.83,0,12.28,1.71,16.36,5.12,4.07,3.42,6.31,8.02,6.73,13.82h-13.87c-.21-2.28-1.15-4.09-2.85-5.43-1.69-1.35-3.95-2.02-6.78-2.02-2.62,0-4.64.48-6.05,1.45-1.42.97-2.12,2.31-2.12,4.04,0,1.93.97,3.4,2.9,4.4,1.93,1,4.93,2.02,9,3.06,4.14,1.04,7.56,2.11,10.25,3.21,2.69,1.1,5.02,2.81,6.99,5.12,1.97,2.31,2.98,5.37,3.05,9.16,0,3.31-.92,6.28-2.75,8.9-1.83,2.62-4.45,4.68-7.87,6.16-3.42,1.48-7.4,2.22-11.95,2.22s-8.9-.84-12.63-2.53Z"/>
          <path class="cls-2" d="M920.05,619.96c-1.66-3.04-3.93-5.35-6.83-6.94-2.9-1.59-6.28-2.38-10.14-2.38-4.28,0-8.07.97-11.38,2.9-3.31,1.93-5.9,4.69-7.76,8.28-1.86,3.59-2.8,7.73-2.8,12.42s.95,9.04,2.85,12.63c1.9,3.59,4.54,6.35,7.92,8.28,3.38,1.93,7.31,2.9,11.8,2.9,5.52,0,10.04-1.47,13.56-4.4,3.52-2.93,5.83-7.02,6.94-12.26h-24.84v-11.08h39.13v12.63c-.97,5.04-3.04,9.7-6.21,13.97-3.17,4.28-7.26,7.71-12.27,10.3-5.01,2.59-10.61,3.88-16.82,3.88-6.97,0-13.27-1.57-18.89-4.71-5.63-3.14-10.04-7.5-13.25-13.09-3.21-5.59-4.81-11.94-4.81-19.05s1.6-13.47,4.81-19.1c3.21-5.63,7.62-10.01,13.25-13.15,5.62-3.14,11.89-4.71,18.79-4.71,8.14,0,15.22,1.98,21.22,5.95,6.01,3.97,10.14,9.54,12.42,16.72h-16.67Z"/>
          <path class="cls-2" d="M1003.38,613.13v57.35h-14.6v-7.25c-1.86,2.48-4.3,4.44-7.3,5.85-3,1.41-6.26,2.12-9.78,2.12-4.49,0-8.45-.95-11.91-2.85-3.45-1.9-6.16-4.69-8.12-8.38-1.97-3.69-2.95-8.09-2.95-13.2v-33.64h14.49v31.57c0,4.55,1.14,8.06,3.42,10.51,2.28,2.45,5.38,3.68,9.31,3.68s7.14-1.22,9.42-3.68c2.28-2.45,3.41-5.95,3.41-10.51v-31.57h14.6Z"/>
          <path class="cls-2" d="M1017.64,603.87c-1.69-1.62-2.54-3.64-2.54-6.06s.84-4.43,2.54-6.06c1.69-1.62,3.81-2.43,6.36-2.43s4.68.81,6.37,2.43c1.69,1.62,2.53,3.64,2.53,6.06s-.84,4.44-2.53,6.06c-1.69,1.62-3.81,2.43-6.37,2.43s-4.68-.81-6.36-2.43ZM1031.15,613.13v57.35h-14.49v-57.35h14.49Z"/>
          <path class="cls-2" d="M1058.89,593.87v76.6h-14.49v-76.6h14.49Z"/>
          <path class="cls-2" d="M1072.55,626.17c2.31-4.48,5.47-7.94,9.47-10.35,4-2.41,8.45-3.62,13.35-3.62,3.73,0,7.28.81,10.66,2.43,3.38,1.62,6.07,3.78,8.07,6.47v-27.23h14.7v76.6h-14.7v-8.49c-1.79,2.83-4.31,5.11-7.56,6.83-3.24,1.72-7.01,2.59-11.28,2.59-4.83,0-9.25-1.24-13.25-3.72-4-2.49-7.16-5.99-9.47-10.51-2.31-4.52-3.47-9.71-3.47-15.58s1.15-10.93,3.47-15.42ZM1112.15,632.74c-1.38-2.52-3.24-4.45-5.59-5.79-2.35-1.35-4.86-2.02-7.56-2.02s-5.17.66-7.45,1.97c-2.28,1.31-4.13,3.22-5.54,5.74-1.41,2.52-2.12,5.5-2.12,8.95s.71,6.47,2.12,9.06c1.41,2.59,3.28,4.57,5.59,5.95,2.31,1.38,4.78,2.07,7.4,2.07s5.21-.67,7.56-2.02c2.35-1.35,4.21-3.28,5.59-5.79,1.38-2.52,2.07-5.54,2.07-9.06s-.69-6.54-2.07-9.06Z"/>
        </g>
      </g>
    </g>
  </g>
</svg>
