<svg xmlns="http://www.w3.org/2000/svg" width="140" height="81" viewBox="0 0 140 81" fill="none"><path d="M20.3923 0.000262126L0 20.3926L20.3923 40.7849L40.7846 20.3926L20.3923 0.000262126Z" fill="#3A405A"></path><path d="M61.0859 40.787L40.6943 20.3955L50.8875 10.2023C56.5192 4.57059 65.6473 4.57059 71.279 10.2023C76.9107 15.834 76.9107 24.9621 71.279 30.5938L61.0859 40.787Z" fill="#3A405A"></path><path d="M40.4556 61.0849L60.8471 40.6934L71.0403 50.8865C76.672 56.5182 76.672 65.6464 71.0403 71.2781C65.4086 76.9098 56.2804 76.9098 50.6487 71.2781L40.4556 61.0849Z" fill="#3A405A"></path><path d="M20.3962 40.2151L0.00390625 60.6074L20.3962 80.9997L40.7885 60.6074L20.3962 40.2151Z" fill="#3A405A"></path><path d="M94.2059 20.333V22.0371H91.4056V30.8483H89.2964V22.0371H86.4961V20.333H94.2059Z" fill="#3A405A"></path><path d="M101.781 22.7953C102.274 23.0707 102.659 23.4759 102.934 24.0162C103.209 24.5565 103.35 25.2007 103.35 25.954V30.848H101.24V26.2398C101.24 25.5748 101.074 25.0656 100.741 24.7124C100.409 24.3539 99.957 24.1773 99.3855 24.1773C98.814 24.1773 98.3412 24.3539 98.0087 24.7124C97.671 25.0708 97.5048 25.58 97.5048 26.2398V30.848H95.3955V19.7041H97.5048V23.5434C97.775 23.1798 98.1386 22.8992 98.5906 22.6914C99.0426 22.4836 99.5466 22.3849 100.097 22.3849C100.731 22.3849 101.292 22.5251 101.786 22.8005L101.781 22.7953Z" fill="#3A405A"></path><path d="M112.961 27.3047H106.862C106.914 27.9073 107.122 28.3801 107.496 28.723C107.865 29.0659 108.322 29.2373 108.867 29.2373C109.652 29.2373 110.208 28.8996 110.54 28.2294H112.816C112.577 29.0347 112.114 29.6945 111.429 30.2088C110.743 30.7284 109.906 30.9829 108.914 30.9829C108.109 30.9829 107.392 30.8063 106.753 30.4478C106.114 30.0894 105.62 29.5854 105.262 28.936C104.903 28.2814 104.727 27.5281 104.727 26.676C104.727 25.824 104.903 25.0551 105.251 24.4005C105.605 23.7459 106.093 23.2471 106.727 22.8939C107.361 22.5406 108.088 22.3691 108.909 22.3691C109.73 22.3691 110.41 22.5406 111.039 22.8835C111.667 23.2264 112.151 23.7095 112.499 24.3382C112.847 24.9668 113.018 25.6889 113.018 26.4994C113.018 26.8007 112.997 27.0709 112.956 27.3151L112.961 27.3047ZM110.841 25.8916C110.831 25.3512 110.634 24.9148 110.254 24.5875C109.87 24.2602 109.408 24.0992 108.852 24.0992C108.327 24.0992 107.891 24.255 107.532 24.5719C107.174 24.8889 106.955 25.3253 106.877 25.8916H110.836H110.841Z" fill="#3A405A"></path><path d="M87.2443 37.7422C87.7119 36.9213 88.3509 36.2875 89.1562 35.8303C89.9615 35.3731 90.8706 35.1445 91.8733 35.1445C93.0475 35.1445 94.0761 35.4459 94.9593 36.0485C95.8425 36.6512 96.4608 37.4824 96.8141 38.5475H94.3879C94.1489 38.0435 93.806 37.6694 93.3696 37.4201C92.9332 37.1707 92.4292 37.046 91.8578 37.046C91.2447 37.046 90.6992 37.1863 90.2212 37.4772C89.7433 37.763 89.3744 38.1682 89.1094 38.6877C88.8445 39.2125 88.7094 39.8203 88.7094 40.5269C88.7094 41.2334 88.8445 41.8309 89.1094 42.3556C89.3744 42.8803 89.7485 43.2908 90.2212 43.5765C90.6992 43.8622 91.2447 44.0077 91.8578 44.0077C92.4292 44.0077 92.9332 43.8778 93.3696 43.6233C93.806 43.3687 94.1437 42.9894 94.3879 42.4855H96.8141C96.4608 43.5609 95.8477 44.3974 94.9697 44.9948C94.0917 45.5923 93.0579 45.8936 91.8733 45.8936C90.8706 45.8936 89.9615 45.665 89.1562 45.2078C88.3457 44.7506 87.7119 44.1168 87.2443 43.3012C86.7768 42.4855 86.543 41.5659 86.543 40.5321C86.543 39.4982 86.7768 38.5734 87.2443 37.7526V37.7422Z" fill="#3A405A"></path><path d="M99.9312 45.3951C99.287 45.0366 98.783 44.5327 98.4194 43.8833C98.0505 43.2287 97.8687 42.4753 97.8687 41.6233C97.8687 40.7713 98.0557 40.018 98.4349 39.3634C98.8142 38.7087 99.3285 38.2048 99.9779 37.8515C100.633 37.493 101.36 37.3164 102.16 37.3164C102.96 37.3164 103.693 37.493 104.342 37.8515C104.997 38.21 105.511 38.7139 105.885 39.3634C106.264 40.018 106.451 40.7713 106.451 41.6233C106.451 42.4753 106.259 43.2287 105.869 43.8833C105.485 44.5379 104.96 45.0418 104.306 45.3951C103.646 45.7536 102.913 45.9302 102.098 45.9302C101.282 45.9302 100.57 45.7536 99.9312 45.3951ZM103.178 43.8157C103.516 43.6287 103.781 43.3533 103.984 42.9793C104.186 42.6052 104.285 42.1584 104.285 41.6233C104.285 40.8284 104.077 40.2206 103.661 39.7946C103.246 39.3686 102.737 39.1555 102.134 39.1555C101.531 39.1555 101.027 39.3686 100.622 39.7946C100.217 40.2206 100.014 40.8336 100.014 41.6233C100.014 42.413 100.212 43.026 100.607 43.4521C101.001 43.8781 101.505 44.0911 102.103 44.0911C102.482 44.0911 102.846 43.9976 103.178 43.8105V43.8157Z" fill="#3A405A"></path><path d="M107.932 39.3473C108.269 38.6926 108.727 38.1939 109.308 37.8406C109.89 37.4873 110.54 37.3159 111.251 37.3159C111.792 37.3159 112.311 37.4354 112.805 37.6692C113.298 37.903 113.688 38.2199 113.979 38.6095V34.6455H116.119V45.7894H113.979V44.5529C113.719 44.9634 113.35 45.2959 112.878 45.5452C112.405 45.7946 111.859 45.9193 111.236 45.9193C110.535 45.9193 109.89 45.7375 109.308 45.379C108.727 45.0153 108.264 44.5062 107.932 43.8516C107.594 43.197 107.428 42.4385 107.428 41.5864C107.428 40.7344 107.594 39.9967 107.932 39.3421V39.3473ZM113.688 40.3032C113.485 39.9343 113.215 39.6538 112.878 39.4616C112.535 39.2641 112.171 39.1654 111.776 39.1654C111.381 39.1654 111.023 39.2589 110.69 39.4512C110.358 39.6434 110.088 39.9187 109.885 40.2876C109.677 40.6565 109.579 41.0877 109.579 41.5916C109.579 42.0956 109.682 42.532 109.885 42.9112C110.093 43.2905 110.363 43.5762 110.701 43.7788C111.038 43.9815 111.397 44.0802 111.776 44.0802C112.155 44.0802 112.535 43.9815 112.878 43.784C113.22 43.5866 113.491 43.3061 113.688 42.9424C113.891 42.5735 113.989 42.1371 113.989 41.6228C113.989 41.1085 113.891 40.6721 113.688 40.3032Z" fill="#3A405A"></path><path d="M125.788 42.2568H119.689C119.741 42.8595 119.949 43.3322 120.323 43.6751C120.692 44.018 121.149 44.1895 121.694 44.1895C122.479 44.1895 123.035 43.8518 123.367 43.1816H125.643C125.404 43.9869 124.941 44.6467 124.256 45.161C123.575 45.6805 122.733 45.9351 121.741 45.9351C120.936 45.9351 120.219 45.7585 119.58 45.4C118.941 45.0415 118.447 44.5376 118.089 43.8881C117.73 43.2335 117.554 42.4802 117.554 41.6282C117.554 40.7762 117.73 40.0073 118.084 39.3527C118.437 38.698 118.925 38.1993 119.559 37.846C120.193 37.4927 120.92 37.3213 121.741 37.3213C122.562 37.3213 123.243 37.4927 123.871 37.8356C124.5 38.1785 124.988 38.6617 125.331 39.2903C125.679 39.9189 125.851 40.6411 125.851 41.4515C125.851 41.7529 125.83 42.023 125.788 42.2672V42.2568ZM123.663 40.8385C123.653 40.2982 123.456 39.8618 123.076 39.5345C122.697 39.2072 122.229 39.0461 121.674 39.0461C121.149 39.0461 120.712 39.202 120.354 39.5189C119.996 39.8358 119.777 40.2722 119.699 40.8385H123.658H123.663Z" fill="#3A405A"></path><path d="M130.464 37.7054C130.9 37.4561 131.399 37.3262 131.965 37.3262V39.5394H131.409C130.749 39.5394 130.246 39.6952 129.913 40.0069C129.575 40.3187 129.409 40.859 129.409 41.6331V45.7893H127.3V37.4457H129.409V38.7393C129.679 38.2977 130.033 37.9496 130.469 37.7002L130.464 37.7054Z" fill="#3A405A"></path><path d="M134.574 45.5613C134.033 45.3172 133.602 44.9795 133.285 44.5587C132.968 44.1378 132.797 43.6702 132.766 43.1559H134.891C134.932 43.478 135.088 43.743 135.363 43.956C135.639 44.169 135.982 44.2729 136.397 44.2729C136.813 44.2729 137.114 44.195 137.337 44.0339C137.566 43.8729 137.675 43.6651 137.675 43.4157C137.675 43.1455 137.535 42.9429 137.26 42.8078C136.984 42.6728 136.543 42.5221 135.94 42.3662C135.317 42.2156 134.807 42.0597 134.413 41.8987C134.018 41.7376 133.675 41.4934 133.389 41.1609C133.103 40.8284 132.958 40.3816 132.958 39.8205C132.958 39.3582 133.093 38.9373 133.358 38.5529C133.623 38.1736 134.007 37.8723 134.501 37.6489C135 37.4307 135.581 37.3164 136.257 37.3164C137.249 37.3164 138.044 37.5658 138.636 38.0593C139.229 38.5581 139.556 39.2283 139.613 40.0699H137.592C137.561 39.7374 137.426 39.4776 137.176 39.2802C136.932 39.0828 136.6 38.9893 136.189 38.9893C135.81 38.9893 135.514 39.062 135.306 39.2023C135.098 39.3426 135 39.54 135 39.7894C135 40.0699 135.14 40.2829 135.42 40.4284C135.701 40.5739 136.137 40.7245 136.73 40.8752C137.332 41.0258 137.831 41.1817 138.221 41.3428C138.61 41.5038 138.953 41.7532 139.239 42.0857C139.525 42.4234 139.675 42.865 139.681 43.4209C139.681 43.904 139.545 44.3352 139.281 44.7145C139.016 45.0938 138.631 45.3951 138.138 45.6133C137.639 45.8315 137.062 45.9354 136.397 45.9354C135.732 45.9354 135.104 45.8107 134.558 45.5665L134.574 45.5613Z" fill="#3A405A"></path><path d="M94.372 53.396C94.133 52.9544 93.8005 52.6168 93.3797 52.3882C92.9589 52.1596 92.4653 52.0401 91.9042 52.0401C91.2808 52.0401 90.7301 52.1803 90.2469 52.4609C89.7637 52.7414 89.3897 53.1415 89.1195 53.6662C88.8494 54.1857 88.7143 54.7884 88.7143 55.4742C88.7143 56.1599 88.8546 56.7886 89.1299 57.3133C89.4053 57.838 89.7897 58.2381 90.2833 58.5186C90.7768 58.7992 91.3483 58.9394 92.0029 58.9394C92.8082 58.9394 93.4628 58.7264 93.9771 58.3004C94.4915 57.8744 94.824 57.2769 94.985 56.5184H91.3691V54.9079H97.0631V56.747C96.9229 57.4795 96.6215 58.1601 96.1592 58.7784C95.6968 59.4018 95.1045 59.9006 94.372 60.2798C93.6446 60.6539 92.829 60.8461 91.925 60.8461C90.9119 60.8461 89.9923 60.6175 89.1767 60.1603C88.3558 59.7031 87.7168 59.0693 87.2492 58.2537C86.7816 57.438 86.5479 56.5184 86.5479 55.4846C86.5479 54.4507 86.7816 53.5259 87.2492 52.7051C87.7168 51.8842 88.361 51.2504 89.1767 50.7932C89.9923 50.336 90.9067 50.1074 91.9094 50.1074C93.0939 50.1074 94.1226 50.3984 94.9954 50.975C95.8682 51.5517 96.4709 52.3622 96.8034 53.4064H94.3772L94.372 53.396Z" fill="#3A405A"></path><path d="M106.498 52.3978V60.7414H104.373V59.6868C104.103 60.0504 103.75 60.331 103.313 60.5388C102.877 60.7466 102.404 60.8453 101.89 60.8453C101.235 60.8453 100.658 60.705 100.16 60.4297C99.6557 60.1543 99.2609 59.7491 98.9752 59.2088C98.6894 58.6737 98.5439 58.0295 98.5439 57.2865V52.3926H100.653V56.9852C100.653 57.6502 100.819 58.1594 101.152 58.5126C101.484 58.8711 101.936 59.0478 102.508 59.0478C103.079 59.0478 103.547 58.8711 103.88 58.5126C104.212 58.1542 104.378 57.645 104.378 56.9852V52.3926H106.503L106.498 52.3978Z" fill="#3A405A"></path><path d="M108.576 51.0523C108.332 50.8185 108.207 50.5224 108.207 50.1691C108.207 49.8158 108.332 49.5249 108.576 49.2859C108.82 49.0521 109.132 48.9326 109.501 48.9326C109.87 48.9326 110.181 49.0521 110.425 49.2859C110.67 49.5197 110.794 49.8158 110.794 50.1691C110.794 50.5224 110.67 50.8133 110.425 51.0523C110.181 51.2861 109.87 51.4056 109.501 51.4056C109.132 51.4056 108.82 51.2861 108.576 51.0523ZM110.54 52.3979V60.7415H108.43V52.3979H110.54Z" fill="#3A405A"></path><path d="M114.577 49.5977V60.7416H112.467V49.5977H114.577Z" fill="#3A405A"></path><path d="M116.566 54.2994C116.904 53.6448 117.361 53.146 117.943 52.7928C118.525 52.4395 119.174 52.268 119.886 52.268C120.427 52.268 120.946 52.3875 121.44 52.6213C121.933 52.8551 122.323 53.172 122.614 53.5617V49.5977H124.754V60.7416H122.614V59.5051C122.354 59.9155 121.985 60.248 121.512 60.4974C121.04 60.7468 120.494 60.8715 119.871 60.8715C119.169 60.8715 118.525 60.6896 117.943 60.3311C117.361 59.9675 116.899 59.4583 116.566 58.8037C116.229 58.1491 116.062 57.3906 116.062 56.5386C116.062 55.6865 116.229 54.9488 116.566 54.2942V54.2994ZM122.328 55.2553C122.125 54.8865 121.855 54.6059 121.512 54.4137C121.169 54.2215 120.806 54.1176 120.411 54.1176C120.016 54.1176 119.658 54.2111 119.325 54.4033C118.993 54.5955 118.722 54.8709 118.52 55.2397C118.312 55.6086 118.213 56.0398 118.213 56.5438C118.213 57.0477 118.317 57.4841 118.52 57.8634C118.728 58.2426 118.998 58.5284 119.336 58.731C119.673 58.9336 120.032 59.0323 120.411 59.0323C120.79 59.0323 121.169 58.9336 121.512 58.7362C121.855 58.5388 122.125 58.2582 122.328 57.8945C122.531 57.5309 122.629 57.0893 122.629 56.5749C122.629 56.0606 122.531 55.6242 122.328 55.2553Z" fill="#3A405A"></path></svg>